# Blender v2.80 (sub 51) OBJ File: 'boat.blend'
# www.blender.org
mtllib lightning4.mtl
o Cube.002_Cube.005
v -0.026294 -0.132131 0.026294
v -0.026294 0.132131 0.026294
v -0.026294 -0.132131 -0.026294
v -0.026294 0.132131 -0.026294
v 0.026294 -0.132131 0.026294
v 0.026294 0.132131 0.026294
v 0.026294 -0.132131 -0.026294
v 0.026294 0.132131 -0.026294
v -0.562256 -0.886324 0.165503
v -0.562256 -0.886324 0.218092
v -0.509668 -0.886324 0.165503
v -0.509668 -0.886324 0.218092
v -0.059598 -0.964556 -0.222701
v -0.059598 -0.964556 -0.170112
v -0.007009 -0.964556 -0.222701
v -0.007009 -0.964556 -0.170112
v -0.424061 -1.625856 0.180559
v -0.424061 -1.625856 0.233148
v -0.371472 -1.625856 0.180559
v -0.371472 -1.625856 0.233148
v -0.311620 -2.627195 0.476492
v -0.311620 -2.627195 0.529081
v -0.259031 -2.627195 0.476492
v -0.259031 -2.627195 0.529081
v 0.186091 -2.479324 0.237584
v 0.186091 -2.479324 0.290172
v 0.238680 -2.479324 0.237584
v 0.238680 -2.479324 0.290172
v -0.322542 -4.370425 0.605961
v -0.322542 -4.370425 0.658549
v -0.269953 -4.370425 0.605961
v -0.269953 -4.370425 0.658549
vt 0.375000 0.000000
vt 0.625000 0.000000
vt 0.625000 0.250000
vt 0.375000 0.250000
vt 0.625000 0.500000
vt 0.375000 0.500000
vt 0.625000 0.750000
vt 0.375000 0.750000
vt 0.625000 1.000000
vt 0.375000 1.000000
vt 0.375000 1.000000
vt 0.375000 0.750000
vt 0.875000 0.500000
vt 0.875000 0.750000
vt 0.375000 0.500000
vt 0.375000 0.750000
vt 0.375000 0.500000
vt 0.375000 0.250000
vt 0.375000 0.000000
vt 0.375000 1.000000
vt 0.375000 1.000000
vt 0.375000 0.750000
vt 0.375000 0.250000
vt 0.375000 0.000000
vt 0.375000 0.500000
vt 0.375000 0.750000
vt 0.375000 0.500000
vt 0.375000 0.250000
vt 0.375000 0.000000
vt 0.375000 0.000000
vt 0.375000 0.250000
vt 0.375000 0.250000
vt 0.375000 0.000000
vt 0.375000 1.000000
vt 0.375000 0.750000
vt 0.375000 1.000000
vt 0.375000 1.000000
vt 0.375000 0.750000
vt 0.375000 0.500000
vt 0.125000 0.500000
vt 0.375000 0.500000
vt 0.125000 0.750000
vt 0.375000 0.250000
vt 0.375000 0.000000
vn -1.0000 0.0000 0.0000
vn 0.0000 0.0000 -1.0000
vn 1.0000 0.0000 0.0000
vn 0.0000 0.0000 1.0000
vn 0.0000 0.2465 0.9692
vn 0.0000 1.0000 0.0000
vn 0.1538 0.9881 0.0000
vn 0.0000 -0.2465 -0.9692
vn -0.8151 0.5793 0.0000
vn 0.8151 -0.5793 0.0000
vn 0.0000 0.5206 0.8538
vn -0.1538 -0.9881 0.0000
vn 0.0000 -0.9803 0.1976
vn 0.0000 0.9803 -0.1976
vn 0.9938 0.1116 0.0000
vn 0.0000 -0.5206 -0.8538
vn 0.8758 -0.4827 0.0000
vn -0.8758 0.4827 0.0000
vn 0.2848 -0.9586 0.0000
vn -0.9938 -0.1116 0.0000
vn 0.0000 0.2834 0.9590
vn 0.0000 -0.2834 -0.9590
vn 0.0000 0.1912 0.9816
vn 0.0000 -0.8503 -0.5263
vn 0.0000 0.8503 0.5263
vn -0.2848 0.9586 0.0000
vn 0.0000 -1.0000 0.0000
vn 0.0000 -0.1912 -0.9816
vn 0.9657 -0.2597 0.0000
vn -0.9657 0.2597 0.0000
usemtl None
s off
f 1/1/1 2/2/1 4/3/1 3/4/1
f 3/4/2 4/3/2 8/5/2 7/6/2
f 7/6/3 8/5/3 6/7/3 5/8/3
f 5/8/4 6/7/4 2/9/4 1/10/4
f 5/8/5 1/10/5 10/11/5 12/12/5
f 8/5/6 4/13/6 2/14/6 6/7/6
f 11/15/7 12/12/7 16/16/7 15/17/7
f 3/4/8 7/6/8 11/15/8 9/18/8
f 1/1/9 3/4/9 9/18/9 10/19/9
f 7/6/10 5/8/10 12/12/10 11/15/10
f 16/16/11 14/20/11 18/21/11 20/22/11
f 10/19/12 9/18/12 13/23/12 14/24/12
f 12/12/13 10/11/13 14/20/13 16/16/13
f 9/18/14 11/15/14 15/17/14 13/23/14
f 19/25/15 20/22/15 24/26/15 23/27/15
f 13/23/16 15/17/16 19/25/16 17/28/16
f 15/17/17 16/16/17 20/22/17 19/25/17
f 14/24/18 13/23/18 17/28/18 18/29/18
f 22/30/19 21/31/19 25/32/19 26/33/19
f 18/29/20 17/28/20 21/31/20 22/30/20
f 20/22/21 18/21/21 22/34/21 24/26/21
f 17/28/22 19/25/22 23/27/22 21/31/22
f 28/35/23 26/36/23 30/37/23 32/38/23
f 24/26/24 22/34/24 26/36/24 28/35/24
f 21/31/25 23/27/25 27/39/25 25/32/25
f 23/27/26 24/26/26 28/35/26 27/39/26
f 29/40/27 31/41/27 32/38/27 30/42/27
f 25/32/28 27/39/28 31/41/28 29/43/28
f 27/39/29 28/35/29 32/38/29 31/41/29
f 26/33/30 25/32/30 29/43/30 30/44/30
